<svg width="101" height="71" viewBox="0 0 101 71" fill="none" xmlns="http://www.w3.org/2000/svg">
<g clip-path="url(#clip0_333_320)">
<g filter="url(#filter0_d_333_320)">
<path d="M64.6855 6H35.6021C21.4784 6 10.0288 17.4167 10.0288 31.5C10.0288 45.5833 21.4784 57 35.6021 57H64.6855C78.8092 57 90.2588 45.5833 90.2588 31.5C90.2588 17.4167 78.8092 6 64.6855 6Z" fill="#484444" fill-opacity="0.89"/>
</g>
<path d="M33.6927 43.448C31.9169 43.448 30.2695 43.1707 28.7505 42.616C27.2315 42.04 25.9157 41.2293 24.8032 40.184C23.7121 39.1387 22.8562 37.912 22.2358 36.504C21.6154 35.0747 21.3052 33.5067 21.3052 31.8C21.3052 30.0933 21.6154 28.536 22.2358 27.128C22.8562 25.6987 23.7227 24.4613 24.8353 23.416C25.9478 22.3707 27.2636 21.5707 28.7826 21.016C30.323 20.44 32.0024 20.152 33.8211 20.152C35.9391 20.152 37.8326 20.504 39.5013 21.208C41.1701 21.912 42.5501 22.9253 43.6412 24.248L39.5976 27.896C38.8274 27.064 37.993 26.4453 37.0944 26.04C36.2172 25.6133 35.2331 25.4 34.142 25.4C33.1792 25.4 32.302 25.5493 31.5104 25.848C30.7188 26.1467 30.0448 26.584 29.4886 27.16C28.9323 27.7147 28.4938 28.3867 28.1729 29.176C27.8733 29.944 27.7236 30.8187 27.7236 31.8C27.7236 32.7387 27.8733 33.6027 28.1729 34.392C28.4938 35.1813 28.9323 35.864 29.4886 36.44C30.0448 36.9947 30.7081 37.432 31.4783 37.752C32.2699 38.0507 33.1364 38.2 34.0778 38.2C35.0191 38.2 35.9391 38.0507 36.8377 37.752C37.7363 37.432 38.6455 36.8987 39.5655 36.152L43.1277 40.6C41.8441 41.5173 40.3571 42.2213 38.667 42.712C36.9767 43.2027 35.3186 43.448 33.6927 43.448ZM37.5116 39.768V31.32H43.1277V40.6L37.5116 39.768ZM58.4848 43.448C56.6876 43.448 55.0295 43.16 53.5105 42.584C51.9914 42.008 50.6649 41.1973 49.5311 40.152C48.4185 39.0853 47.552 37.848 46.9316 36.44C46.3112 35.032 46.001 33.4853 46.001 31.8C46.001 30.1147 46.3112 28.568 46.9316 27.16C47.552 25.752 48.4185 24.5253 49.5311 23.48C50.6649 22.4133 51.9914 21.592 53.5105 21.016C55.0295 20.44 56.6876 20.152 58.4848 20.152C60.3033 20.152 61.9613 20.44 63.459 21.016C64.978 21.592 66.2938 22.4133 67.4063 23.48C68.5188 24.5253 69.3853 25.752 70.0058 27.16C70.6476 28.568 70.9685 30.1147 70.9685 31.8C70.9685 33.4853 70.6476 35.0427 70.0058 36.472C69.3853 37.88 68.5188 39.1067 67.4063 40.152C66.2938 41.1973 64.978 42.008 63.459 42.584C61.9613 43.16 60.3033 43.448 58.4848 43.448ZM58.4848 38.2C59.3405 38.2 60.1321 38.0507 60.8596 37.752C61.6083 37.4533 62.2502 37.0267 62.7851 36.472C63.3413 35.896 63.7692 35.2133 64.0688 34.424C64.3897 33.6347 64.5502 32.76 64.5502 31.8C64.5502 30.8187 64.3897 29.944 64.0688 29.176C63.7692 28.3867 63.3413 27.7147 62.7851 27.16C62.2502 26.584 61.6083 26.1467 60.8596 25.848C60.1321 25.5493 59.3405 25.4 58.4848 25.4C57.6289 25.4 56.8266 25.5493 56.0779 25.848C55.3504 26.1467 54.7085 26.584 54.1523 27.16C53.6174 27.7147 53.1896 28.3867 52.8687 29.176C52.5691 29.944 52.4194 30.8187 52.4194 31.8C52.4194 32.76 52.5691 33.6347 52.8687 34.424C53.1896 35.2133 53.6174 35.896 54.1523 36.472C54.7085 37.0267 55.3504 37.4533 56.0779 37.752C56.8266 38.0507 57.6289 38.2 58.4848 38.2Z" fill="#FFF6F6"/>
<path d="M75.8049 34.84L74.6175 20.6H81.8703L80.6508 34.84H75.8049ZM78.2439 43.288C77.1742 43.288 76.2971 42.9573 75.6124 42.296C74.9277 41.6347 74.5854 40.8453 74.5854 39.928C74.5854 38.9893 74.9277 38.2107 75.6124 37.592C76.2971 36.952 77.1742 36.632 78.2439 36.632C79.3137 36.632 80.1802 36.952 80.8434 37.592C81.5281 38.2107 81.8703 38.9893 81.8703 39.928C81.8703 40.8453 81.5281 41.6347 80.8434 42.296C80.1802 42.9573 79.3137 43.288 78.2439 43.288Z" fill="#DCFF19"/>
<mask id="mask0_333_320" style="mask-type:luminance" maskUnits="userSpaceOnUse" x="73" y="20" width="11" height="24">
<path d="M83.2387 20H73.21V44H83.2387V20Z" fill="white"/>
<path d="M75.8049 34.84L74.6175 20.6H81.8703L80.6508 34.84H75.8049ZM78.2439 43.288C77.1742 43.288 76.2971 42.9573 75.6124 42.296C74.9277 41.6347 74.5854 40.8453 74.5854 39.928C74.5854 38.9893 74.9277 38.2107 75.6124 37.592C76.2971 36.952 77.1742 36.632 78.2439 36.632C79.3137 36.632 80.1802 36.952 80.8434 37.592C81.5281 38.2107 81.8703 38.9893 81.8703 39.928C81.8703 40.8453 81.5281 41.6347 80.8434 42.296C80.1802 42.9573 79.3137 43.288 78.2439 43.288Z" fill="black"/>
</mask>
<g mask="url(#mask0_333_320)">
<path d="M75.805 34.84L75.3053 34.8814L75.3435 35.34H75.805V34.84ZM74.6176 20.6V20.1H74.0728L74.1179 20.6414L74.6176 20.6ZM81.8704 20.6L82.37 20.6425L82.4165 20.1H81.8704V20.6ZM80.6509 34.84V35.34H81.1113L81.1505 34.8825L80.6509 34.84ZM75.6125 37.592L75.9492 37.9625L75.9555 37.9568L75.6125 37.592ZM80.8435 37.592L80.4948 37.9513L80.5007 37.957L80.5067 37.9625L80.8435 37.592ZM80.8435 42.296L80.4946 41.9368L80.4888 41.9424L80.8435 42.296ZM75.805 34.84L76.3048 34.7986L75.1174 20.5586L74.6176 20.6L74.1179 20.6414L75.3053 34.8814L75.805 34.84ZM74.6176 20.6V21.1H81.8704V20.6V20.1H74.6176V20.6ZM81.8704 20.6L81.3708 20.5575L80.1513 34.7975L80.6509 34.84L81.1505 34.8825L82.37 20.6425L81.8704 20.6ZM80.6509 34.84V34.34H75.805V34.84V35.34H80.6509V34.84ZM78.244 43.288V42.788C77.2872 42.788 76.5407 42.4965 75.9614 41.9369L75.6125 42.296L75.2636 42.6551C76.0534 43.4181 77.0613 43.788 78.244 43.788V43.288ZM75.6125 42.296L75.9614 41.9369C75.3703 41.3659 75.087 40.7046 75.087 39.928H74.5855H74.0841C74.0841 40.9861 74.4854 41.9034 75.2636 42.6551L75.6125 42.296ZM74.5855 39.928H75.087C75.087 39.1274 75.3717 38.4844 75.9492 37.9625L75.6125 37.592L75.2757 37.2215C74.484 37.937 74.0841 38.8512 74.0841 39.928H74.5855ZM75.6125 37.592L75.9555 37.9568C76.534 37.4159 77.2825 37.132 78.244 37.132V36.632V36.132C77.066 36.132 76.0601 36.4881 75.2695 37.2272L75.6125 37.592ZM78.244 36.632V37.132C79.2059 37.132 79.9399 37.4159 80.4948 37.9513L80.8435 37.592L81.1922 37.2327C80.4205 36.4881 79.4216 36.132 78.244 36.132V36.632ZM80.8435 37.592L80.5067 37.9625C81.0843 38.4844 81.369 39.1274 81.369 39.928H81.8704H82.3718C82.3718 38.8512 81.9719 37.937 81.1802 37.2215L80.8435 37.592ZM81.8704 39.928H81.369C81.369 40.7046 81.0857 41.3658 80.4946 41.9368L80.8435 42.296L81.1924 42.6551C81.9705 41.9034 82.3718 40.9861 82.3718 39.928H81.8704ZM80.8435 42.296L80.4888 41.9424C79.9332 42.4966 79.2011 42.788 78.244 42.788V43.288V43.788C79.4264 43.788 80.4273 43.4181 81.1981 42.6496L80.8435 42.296Z" fill="#3D3A3A" fill-opacity="0.76"/>
</g>
<g filter="url(#filter1_d_333_320)">
<rect x="10.0288" y="6" width="80.23" height="51" rx="25.5" fill="#FFF6F6"/>
</g>
<path d="M33.7286 41.448C31.9579 41.448 30.3153 41.1707 28.8006 40.616C27.2859 40.04 25.9739 39.2293 24.8646 38.184C23.7766 37.1387 22.9233 35.912 22.3046 34.504C21.6859 33.0747 21.3766 31.5067 21.3766 29.8C21.3766 28.0933 21.6859 26.536 22.3046 25.128C22.9233 23.6987 23.7873 22.4613 24.8966 21.416C26.0059 20.3707 27.3179 19.5707 28.8326 19.016C30.3686 18.44 32.0433 18.152 33.8566 18.152C35.9686 18.152 37.8566 18.504 39.5206 19.208C41.1846 19.912 42.5606 20.9253 43.6486 22.248L39.6166 25.896C38.8486 25.064 38.0166 24.4453 37.1206 24.04C36.246 23.6133 35.2646 23.4 34.1766 23.4C33.2166 23.4 32.342 23.5493 31.5526 23.848C30.7633 24.1467 30.0913 24.584 29.5366 25.16C28.9819 25.7147 28.5446 26.3867 28.2246 27.176C27.9259 27.944 27.7766 28.8187 27.7766 29.8C27.7766 30.7387 27.9259 31.6027 28.2246 32.392C28.5446 33.1813 28.9819 33.864 29.5366 34.44C30.0913 34.9947 30.7526 35.432 31.5206 35.752C32.3099 36.0507 33.1739 36.2 34.1126 36.2C35.0513 36.2 35.9686 36.0507 36.8646 35.752C37.7606 35.432 38.6673 34.8987 39.5846 34.152L43.1366 38.6C41.8566 39.5173 40.374 40.2213 38.6886 40.712C37.0033 41.2027 35.35 41.448 33.7286 41.448ZM37.5366 37.768V29.32H43.1366V38.6L37.5366 37.768ZM58.4496 41.448C56.6576 41.448 55.0043 41.16 53.4896 40.584C51.9749 40.008 50.6523 39.1973 49.5216 38.152C48.4123 37.0853 47.5483 35.848 46.9296 34.44C46.3109 33.032 46.0016 31.4853 46.0016 29.8C46.0016 28.1147 46.3109 26.568 46.9296 25.16C47.5483 23.752 48.4123 22.5253 49.5216 21.48C50.6523 20.4133 51.9749 19.592 53.4896 19.016C55.0043 18.44 56.6576 18.152 58.4496 18.152C60.2629 18.152 61.9163 18.44 63.4096 19.016C64.9243 19.592 66.2363 20.4133 67.3456 21.48C68.455 22.5253 69.319 23.752 69.9376 25.16C70.5776 26.568 70.8976 28.1147 70.8976 29.8C70.8976 31.4853 70.5776 33.0427 69.9376 34.472C69.319 35.88 68.455 37.1067 67.3456 38.152C66.2363 39.1973 64.9243 40.008 63.4096 40.584C61.9163 41.16 60.2629 41.448 58.4496 41.448ZM58.4496 36.2C59.303 36.2 60.0923 36.0507 60.8176 35.752C61.5643 35.4533 62.2043 35.0267 62.7376 34.472C63.2923 33.896 63.7189 33.2133 64.0176 32.424C64.3376 31.6347 64.4976 30.76 64.4976 29.8C64.4976 28.8187 64.3376 27.944 64.0176 27.176C63.7189 26.3867 63.2923 25.7147 62.7376 25.16C62.2043 24.584 61.5643 24.1467 60.8176 23.848C60.0923 23.5493 59.303 23.4 58.4496 23.4C57.5963 23.4 56.7963 23.5493 56.0496 23.848C55.3243 24.1467 54.6843 24.584 54.1296 25.16C53.5963 25.7147 53.1696 26.3867 52.8496 27.176C52.5509 27.944 52.4016 28.8187 52.4016 29.8C52.4016 30.76 52.5509 31.6347 52.8496 32.424C53.1696 33.2133 53.5963 33.896 54.1296 34.472C54.6843 35.0267 55.3243 35.4533 56.0496 35.752C56.7963 36.0507 57.5963 36.2 58.4496 36.2Z" fill="#484444"/>
<path d="M36.8123 48.856H39.3963V50.08H36.8123V48.856ZM36.9243 52H35.3403V46.4H39.7323V47.624H36.9243V52ZM40.4011 52V47.664H41.9211V52H40.4011ZM41.1611 47.184C40.8838 47.184 40.6598 47.1067 40.4891 46.952C40.3185 46.7973 40.2331 46.6053 40.2331 46.376C40.2331 46.1467 40.3185 45.9547 40.4891 45.8C40.6598 45.6453 40.8838 45.568 41.1611 45.568C41.4385 45.568 41.6625 45.6427 41.8331 45.792C42.0038 45.936 42.0891 46.1227 42.0891 46.352C42.0891 46.592 42.0038 46.792 41.8331 46.952C41.6678 47.1067 41.4438 47.184 41.1611 47.184ZM44.8449 52.072C44.2903 52.072 43.8583 51.936 43.5489 51.664C43.2396 51.3867 43.0849 50.9707 43.0849 50.416V46.696H44.6049V50.4C44.6049 50.5547 44.6476 50.6773 44.7329 50.768C44.8183 50.8533 44.9276 50.896 45.0609 50.896C45.2423 50.896 45.3969 50.8507 45.5249 50.76L45.9009 51.824C45.7729 51.9093 45.6156 51.9707 45.4289 52.008C45.2423 52.0507 45.0476 52.072 44.8449 52.072ZM42.4529 48.96V47.824H45.5969V48.96H42.4529ZM49.3111 47.592C49.6471 47.592 49.9511 47.6613 50.2231 47.8C50.4951 47.9333 50.7084 48.1413 50.8631 48.424C51.0231 48.7067 51.1031 49.072 51.1031 49.52V52H49.5831V49.768C49.5831 49.4587 49.5191 49.2347 49.3911 49.096C49.2684 48.952 49.0951 48.88 48.8711 48.88C48.7111 48.88 48.5644 48.9173 48.4311 48.992C48.2977 49.0613 48.1937 49.1707 48.1191 49.32C48.0444 49.4693 48.0071 49.664 48.0071 49.904V52H46.4871V47.664H47.9351V48.896L47.6551 48.536C47.8204 48.2213 48.0471 47.9867 48.3351 47.832C48.6231 47.672 48.9484 47.592 49.3111 47.592ZM54.3841 52.072C53.8721 52.072 53.4241 51.976 53.0401 51.784C52.6614 51.5867 52.3654 51.32 52.1521 50.984C51.9441 50.6427 51.8401 50.256 51.8401 49.824C51.8401 49.392 51.9414 49.008 52.1441 48.672C52.3521 48.3307 52.6374 48.0667 53.0001 47.88C53.3627 47.688 53.7707 47.592 54.2241 47.592C54.6507 47.592 55.0401 47.68 55.3921 47.856C55.7441 48.0267 56.0241 48.28 56.2321 48.616C56.4401 48.952 56.5441 49.36 56.5441 49.84C56.5441 49.8933 56.5414 49.9547 56.5361 50.024C56.5307 50.0933 56.5254 50.1573 56.5201 50.216H53.0881V49.416H55.7121L55.1361 49.64C55.1414 49.4427 55.1041 49.272 55.0241 49.128C54.9494 48.984 54.8427 48.872 54.7041 48.792C54.5707 48.712 54.4134 48.672 54.2321 48.672C54.0507 48.672 53.8907 48.712 53.7521 48.792C53.6187 48.872 53.5147 48.9867 53.4401 49.136C53.3654 49.28 53.3281 49.4507 53.3281 49.648V49.88C53.3281 50.0933 53.3707 50.2773 53.4561 50.432C53.5467 50.5867 53.6747 50.7067 53.8401 50.792C54.0054 50.872 54.2027 50.912 54.4321 50.912C54.6454 50.912 54.8267 50.8827 54.9761 50.824C55.1307 50.76 55.2827 50.664 55.4321 50.536L56.2321 51.368C56.0241 51.5973 55.7681 51.7733 55.4641 51.896C55.1601 52.0133 54.8001 52.072 54.3841 52.072ZM58.8209 52.072C58.4529 52.072 58.0929 52.0293 57.7409 51.944C57.3942 51.8587 57.1142 51.752 56.9009 51.624L57.3569 50.584C57.5595 50.7067 57.7969 50.8053 58.0689 50.88C58.3409 50.9493 58.6075 50.984 58.8689 50.984C59.1249 50.984 59.3009 50.9573 59.3969 50.904C59.4982 50.8507 59.5489 50.7787 59.5489 50.688C59.5489 50.6027 59.5009 50.5413 59.4049 50.504C59.3142 50.4613 59.1915 50.4293 59.0369 50.408C58.8875 50.3867 58.7222 50.3627 58.5409 50.336C58.3595 50.3093 58.1755 50.2747 57.9889 50.232C57.8075 50.184 57.6395 50.1147 57.4849 50.024C57.3355 49.928 57.2155 49.8 57.1249 49.64C57.0342 49.48 56.9889 49.2773 56.9889 49.032C56.9889 48.7547 57.0689 48.5093 57.2289 48.296C57.3942 48.0773 57.6342 47.9067 57.9489 47.784C58.2635 47.656 58.6475 47.592 59.1009 47.592C59.4049 47.592 59.7115 47.624 60.0209 47.688C60.3355 47.7467 60.5995 47.8373 60.8129 47.96L60.3569 48.992C60.1435 48.8693 59.9302 48.7867 59.7169 48.744C59.5035 48.696 59.3009 48.672 59.1089 48.672C58.8529 48.672 58.6715 48.7013 58.5649 48.76C58.4635 48.8187 58.4129 48.8907 58.4129 48.976C58.4129 49.0613 58.4582 49.128 58.5489 49.176C58.6395 49.2187 58.7595 49.2533 58.9089 49.28C59.0635 49.3013 59.2315 49.3253 59.4129 49.352C59.5942 49.3733 59.7755 49.408 59.9569 49.456C60.1435 49.504 60.3115 49.576 60.4609 49.672C60.6155 49.7627 60.7382 49.888 60.8289 50.048C60.9195 50.2027 60.9649 50.4027 60.9649 50.648C60.9649 50.9147 60.8822 51.1547 60.7169 51.368C60.5569 51.5813 60.3169 51.752 59.9969 51.88C59.6822 52.008 59.2902 52.072 58.8209 52.072ZM63.1959 52.072C62.8279 52.072 62.4679 52.0293 62.1159 51.944C61.7692 51.8587 61.4892 51.752 61.2759 51.624L61.7319 50.584C61.9345 50.7067 62.1719 50.8053 62.4439 50.88C62.7159 50.9493 62.9825 50.984 63.2439 50.984C63.4999 50.984 63.6759 50.9573 63.7719 50.904C63.8732 50.8507 63.9239 50.7787 63.9239 50.688C63.9239 50.6027 63.8759 50.5413 63.7799 50.504C63.6892 50.4613 63.5665 50.4293 63.4119 50.408C63.2625 50.3867 63.0972 50.3627 62.9159 50.336C62.7345 50.3093 62.5505 50.2747 62.3639 50.232C62.1825 50.184 62.0145 50.1147 61.8599 50.024C61.7105 49.928 61.5905 49.8 61.4999 49.64C61.4092 49.48 61.3639 49.2773 61.3639 49.032C61.3639 48.7547 61.4439 48.5093 61.6039 48.296C61.7692 48.0773 62.0092 47.9067 62.3239 47.784C62.6385 47.656 63.0225 47.592 63.4759 47.592C63.7799 47.592 64.0865 47.624 64.3959 47.688C64.7105 47.7467 64.9745 47.8373 65.1879 47.96L64.7319 48.992C64.5185 48.8693 64.3052 48.7867 64.0919 48.744C63.8785 48.696 63.6759 48.672 63.4839 48.672C63.2279 48.672 63.0465 48.7013 62.9399 48.76C62.8385 48.8187 62.7879 48.8907 62.7879 48.976C62.7879 49.0613 62.8332 49.128 62.9239 49.176C63.0145 49.2187 63.1345 49.2533 63.2839 49.28C63.4385 49.3013 63.6065 49.3253 63.7879 49.352C63.9692 49.3733 64.1505 49.408 64.3319 49.456C64.5185 49.504 64.6865 49.576 64.8359 49.672C64.9905 49.7627 65.1132 49.888 65.2039 50.048C65.2945 50.2027 65.3399 50.4027 65.3399 50.648C65.3399 50.9147 65.2572 51.1547 65.0919 51.368C64.9319 51.5813 64.6919 51.752 64.3719 51.88C64.0572 52.008 63.6652 52.072 63.1959 52.072Z" fill="#484444"/>
<mask id="path-10-outside-1_333_320" maskUnits="userSpaceOnUse" x="73.21" y="18" width="10" height="24" fill="black">
<rect fill="white" x="73.21" y="18" width="10" height="24"/>
<path d="M75.8118 32.84L74.6278 18.6H81.8598L80.6438 32.84H75.8118ZM78.2438 41.288C77.1772 41.288 76.3025 40.9573 75.6198 40.296C74.9372 39.6347 74.5958 38.8453 74.5958 37.928C74.5958 36.9893 74.9372 36.2107 75.6198 35.592C76.3025 34.952 77.1772 34.632 78.2438 34.632C79.3105 34.632 80.1745 34.952 80.8358 35.592C81.5185 36.2107 81.8598 36.9893 81.8598 37.928C81.8598 38.8453 81.5185 39.6347 80.8358 40.296C80.1745 40.9573 79.3105 41.288 78.2438 41.288Z"/>
</mask>
<path d="M75.8118 32.84L74.6278 18.6H81.8598L80.6438 32.84H75.8118ZM78.2438 41.288C77.1772 41.288 76.3025 40.9573 75.6198 40.296C74.9372 39.6347 74.5958 38.8453 74.5958 37.928C74.5958 36.9893 74.9372 36.2107 75.6198 35.592C76.3025 34.952 77.1772 34.632 78.2438 34.632C79.3105 34.632 80.1745 34.952 80.8358 35.592C81.5185 36.2107 81.8598 36.9893 81.8598 37.928C81.8598 38.8453 81.5185 39.6347 80.8358 40.296C80.1745 40.9573 79.3105 41.288 78.2438 41.288Z" fill="#DCFF19"/>
<path d="M75.8118 32.84L75.3136 32.8814L75.3517 33.34H75.8118V32.84ZM74.6278 18.6V18.1H74.0845L74.1296 18.6414L74.6278 18.6ZM81.8598 18.6L82.358 18.6425L82.4044 18.1H81.8598V18.6ZM80.6438 32.84V33.34H81.103L81.142 32.8825L80.6438 32.84ZM75.6198 40.296L75.9677 39.9369L75.6198 40.296ZM75.6198 35.592L75.9556 35.9625L75.9618 35.9568L75.6198 35.592ZM80.8358 35.592L80.4881 35.9513L80.494 35.957L80.5001 35.9625L80.8358 35.592ZM80.8358 40.296L80.4879 39.9368L80.4823 39.9424L80.8358 40.296ZM75.8118 32.84L76.3101 32.7986L75.1261 18.5586L74.6278 18.6L74.1296 18.6414L75.3136 32.8814L75.8118 32.84ZM74.6278 18.6V19.1H81.8598V18.6V18.1H74.6278V18.6ZM81.8598 18.6L81.3616 18.5575L80.1456 32.7975L80.6438 32.84L81.142 32.8825L82.358 18.6425L81.8598 18.6ZM80.6438 32.84V32.34H75.8118V32.84V33.34H80.6438V32.84ZM78.2438 41.288V40.788C77.2898 40.788 76.5454 40.4965 75.9677 39.9369L75.6198 40.296L75.2719 40.6551C76.0596 41.4181 77.0646 41.788 78.2438 41.788V41.288ZM75.6198 40.296L75.9677 39.9369C75.3783 39.3659 75.0958 38.7046 75.0958 37.928H74.5958H74.0958C74.0958 38.9861 74.496 39.9034 75.2719 40.6551L75.6198 40.296ZM74.5958 37.928H75.0958C75.0958 37.1274 75.3797 36.4844 75.9556 35.9625L75.6198 35.592L75.2841 35.2215C74.4946 35.937 74.0958 36.8512 74.0958 37.928H74.5958ZM75.6198 35.592L75.9618 35.9568C76.5387 35.4159 77.2851 35.132 78.2438 35.132V34.632V34.132C77.0693 34.132 76.0663 34.4881 75.2779 35.2272L75.6198 35.592ZM78.2438 34.632V35.132C79.2029 35.132 79.9349 35.4159 80.4881 35.9513L80.8358 35.592L81.1835 35.2327C80.4141 34.4881 79.4181 34.132 78.2438 34.132V34.632ZM80.8358 35.592L80.5001 35.9625C81.0759 36.4844 81.3598 37.1274 81.3598 37.928H81.8598H82.3598C82.3598 36.8512 81.9611 35.937 81.1716 35.2215L80.8358 35.592ZM81.8598 37.928H81.3598C81.3598 38.7046 81.0773 39.3659 80.4879 39.9369L80.8358 40.296L81.1837 40.6551C81.9597 39.9034 82.3598 38.9861 82.3598 37.928H81.8598ZM80.8358 40.296L80.4823 39.9424C79.9281 40.4966 79.1981 40.788 78.2438 40.788V41.288V41.788C79.4229 41.788 80.4209 41.4181 81.1894 40.6496L80.8358 40.296Z" fill="#3D3A3A" fill-opacity="0.76" mask="url(#path-10-outside-1_333_320)"/>
</g>
<defs>
<filter id="filter0_d_333_320" x="2.02881" y="2" width="96.23" height="67" filterUnits="userSpaceOnUse" color-interpolation-filters="sRGB">
<feFlood flood-opacity="0" result="BackgroundImageFix"/>
<feColorMatrix in="SourceAlpha" type="matrix" values="0 0 0 0 0 0 0 0 0 0 0 0 0 0 0 0 0 0 127 0" result="hardAlpha"/>
<feOffset dy="4"/>
<feGaussianBlur stdDeviation="4"/>
<feComposite in2="hardAlpha" operator="out"/>
<feColorMatrix type="matrix" values="0 0 0 0 0 0 0 0 0 0 0 0 0 0 0 0 0 0 0.25 0"/>
<feBlend mode="normal" in2="BackgroundImageFix" result="effect1_dropShadow_333_320"/>
<feBlend mode="normal" in="SourceGraphic" in2="effect1_dropShadow_333_320" result="shape"/>
</filter>
<filter id="filter1_d_333_320" x="0.0288086" y="0" width="100.23" height="71" filterUnits="userSpaceOnUse" color-interpolation-filters="sRGB">
<feFlood flood-opacity="0" result="BackgroundImageFix"/>
<feColorMatrix in="SourceAlpha" type="matrix" values="0 0 0 0 0 0 0 0 0 0 0 0 0 0 0 0 0 0 127 0" result="hardAlpha"/>
<feMorphology radius="2" operator="dilate" in="SourceAlpha" result="effect1_dropShadow_333_320"/>
<feOffset dy="4"/>
<feGaussianBlur stdDeviation="4"/>
<feComposite in2="hardAlpha" operator="out"/>
<feColorMatrix type="matrix" values="0 0 0 0 0 0 0 0 0 0 0 0 0 0 0 0 0 0 0.25 0"/>
<feBlend mode="normal" in2="BackgroundImageFix" result="effect1_dropShadow_333_320"/>
<feBlend mode="normal" in="SourceGraphic" in2="effect1_dropShadow_333_320" result="shape"/>
</filter>
<clipPath id="clip0_333_320">
<rect width="100.287" height="71" fill="white"/>
</clipPath>
</defs>
</svg>
